REM DIRINDEX 1\5,1\2\6,1\2\7,1\3\8,1\3\9,1\4\10,1\4\11,1\4\12
REM DIRNAME cjc026,folder01,folder02,folder03,folder04,folder05,folder06,folder07,folder08,folder09,folder10,folder11
TITLE ""
FILE "EJE_DB3000_5th_2A_51.mp3" MP3
  TRACK 01 AUDIO
    TITLE "0:"
    INDEX 01 00:00:00
  TRACK 02 AUDIO
    TITLE "10:cjc026_08217"
    INDEX 01 00:00:08
  TRACK 03 AUDIO
    TITLE "0:"
    INDEX 01 00:01:22
  TRACK 04 AUDIO
    TITLE "11:cjc026_08218"
    INDEX 01 00:01:60
  TRACK 05 AUDIO
    TITLE "0:"
    INDEX 01 00:03:12
  TRACK 06 AUDIO
    TITLE "12:cjc026_08219"
    INDEX 01 00:03:47
  TRACK 07 AUDIO
    TITLE "0:"
    INDEX 01 00:04:64
  TRACK 08 AUDIO
    TITLE "10:cjc026_08220"
    INDEX 01 00:05:24
  TRACK 09 AUDIO
    TITLE "0:"
    INDEX 01 00:06:44
  TRACK 10 AUDIO
    TITLE "11:cjc026_08221"
    INDEX 01 00:07:04
  TRACK 11 AUDIO
    TITLE "0:"
    INDEX 01 00:08:39
  TRACK 12 AUDIO
    TITLE "12:cjc026_08222"
    INDEX 01 00:09:02
  TRACK 13 AUDIO
    TITLE "0:"
    INDEX 01 00:10:22
  TRACK 14 AUDIO
    TITLE "10:cjc026_08223"
    INDEX 01 00:10:57
  TRACK 15 AUDIO
    TITLE "0:"
    INDEX 01 00:11:68
  TRACK 16 AUDIO
    TITLE "11:cjc026_08224"
    INDEX 01 00:12:31
  TRACK 17 AUDIO
    TITLE "0:"
    INDEX 01 00:13:64
  TRACK 18 AUDIO
    TITLE "12:cjc026_08225"
    INDEX 01 00:14:24
  TRACK 19 AUDIO
    TITLE "0:"
    INDEX 01 00:15:36
  TRACK 20 AUDIO
    TITLE "10:cjc026_08226"
    INDEX 01 00:15:73
  TRACK 21 AUDIO
    TITLE "0:"
    INDEX 01 00:17:07
  TRACK 22 AUDIO
    TITLE "11:cjc026_08227"
    INDEX 01 00:17:42
  TRACK 23 AUDIO
    TITLE "0:"
    INDEX 01 00:18:67
  TRACK 24 AUDIO
    TITLE "12:cjc026_08228"
    INDEX 01 00:19:27
  TRACK 25 AUDIO
    TITLE "0:"
    INDEX 01 00:20:36
  TRACK 26 AUDIO
    TITLE "10:cjc026_08229"
    INDEX 01 00:20:74
  TRACK 27 AUDIO
    TITLE "0:"
    INDEX 01 00:22:18
  TRACK 28 AUDIO
    TITLE "11:cjc026_08230"
    INDEX 01 00:22:56
  TRACK 29 AUDIO
    TITLE "0:"
    INDEX 01 00:23:57
  TRACK 30 AUDIO
    TITLE "12:cjc026_08231"
    INDEX 01 00:24:17
  TRACK 31 AUDIO
    TITLE "0:"
    INDEX 01 00:25:36
  TRACK 32 AUDIO
    TITLE "10:cjc026_08232"
    INDEX 01 00:25:74
  TRACK 33 AUDIO
    TITLE "0:"
    INDEX 01 00:27:18
  TRACK 34 AUDIO
    TITLE "11:cjc026_08233"
    INDEX 01 00:27:56
  TRACK 35 AUDIO
    TITLE "0:"
    INDEX 01 00:29:36
  TRACK 36 AUDIO
    TITLE "12:cjc026_08234"
    INDEX 01 00:29:71
  TRACK 37 AUDIO
    TITLE "0:"
    INDEX 01 00:31:15
  TRACK 38 AUDIO
    TITLE "10:cjc026_08235"
    INDEX 01 00:31:56
  TRACK 39 AUDIO
    TITLE "0:"
    INDEX 01 00:33:06
  TRACK 40 AUDIO
    TITLE "11:cjc026_08236"
    INDEX 01 00:33:41
  TRACK 41 AUDIO
    TITLE "0:"
    INDEX 01 00:35:02
  TRACK 42 AUDIO
    TITLE "12:cjc026_08237"
    INDEX 01 00:35:37
  TRACK 43 AUDIO
    TITLE "0:"
    INDEX 01 00:36:64
  TRACK 44 AUDIO
    TITLE "10:cjc026_08238"
    INDEX 01 00:37:24
  TRACK 45 AUDIO
    TITLE "0:"
    INDEX 01 00:38:63
  TRACK 46 AUDIO
    TITLE "11:cjc026_08239"
    INDEX 01 00:39:23
  TRACK 47 AUDIO
    TITLE "0:"
    INDEX 01 00:40:51
  TRACK 48 AUDIO
    TITLE "12:cjc026_08240"
    INDEX 01 00:41:11
  TRACK 49 AUDIO
    TITLE "0:"
    INDEX 01 00:42:52
  TRACK 50 AUDIO
    TITLE "10:cjc026_08241"
    INDEX 01 00:43:09
  TRACK 51 AUDIO
    TITLE "0:"
    INDEX 01 00:44:23
  TRACK 52 AUDIO
    TITLE "11:cjc026_08242"
    INDEX 01 00:44:61
  TRACK 53 AUDIO
    TITLE "0:"
    INDEX 01 00:45:67
  TRACK 54 AUDIO
    TITLE "12:cjc026_08243"
    INDEX 01 00:46:27
  TRACK 55 AUDIO
    TITLE "0:"
    INDEX 01 00:47:39
  TRACK 56 AUDIO
    TITLE "10:cjc026_08244"
    INDEX 01 00:48:01
  TRACK 57 AUDIO
    TITLE "0:"
    INDEX 01 00:49:24
  TRACK 58 AUDIO
    TITLE "11:cjc026_08245"
    INDEX 01 00:49:59
  TRACK 59 AUDIO
    TITLE "0:"
    INDEX 01 00:51:00
  TRACK 60 AUDIO
    TITLE "12:cjc026_08246"
    INDEX 01 00:51:36
  TRACK 61 AUDIO
    TITLE "0:"
    INDEX 01 00:52:58
  TRACK 62 AUDIO
    TITLE "10:cjc026_08247"
    INDEX 01 00:53:18
  TRACK 63 AUDIO
    TITLE "0:"
    INDEX 01 00:54:45
  TRACK 64 AUDIO
    TITLE "11:cjc026_08248"
    INDEX 01 00:55:06
  TRACK 65 AUDIO
    TITLE "0:"
    INDEX 01 00:56:39
  TRACK 66 AUDIO
    TITLE "12:cjc026_08249"
    INDEX 01 00:56:74
  TRACK 67 AUDIO
    TITLE "0:"
    INDEX 01 00:58:26
  TRACK 68 AUDIO
    TITLE "10:cjc026_08250"
    INDEX 01 00:58:61
  TRACK 69 AUDIO
    TITLE "0:"
    INDEX 01 01:00:03
  TRACK 70 AUDIO
    TITLE "11:cjc026_08251"
    INDEX 01 01:00:44
  TRACK 71 AUDIO
    TITLE "0:"
    INDEX 01 01:02:02
  TRACK 72 AUDIO
    TITLE "12:cjc026_08252"
    INDEX 01 01:02:37
  TRACK 73 AUDIO
    TITLE "0:"
    INDEX 01 01:03:54
  TRACK 74 AUDIO
    TITLE "10:cjc026_08253"
    INDEX 01 01:04:19
  TRACK 75 AUDIO
    TITLE "0:"
    INDEX 01 01:05:30
  TRACK 76 AUDIO
    TITLE "11:cjc026_08254"
    INDEX 01 01:05:68
  TRACK 77 AUDIO
    TITLE "0:"
    INDEX 01 01:07:13
  TRACK 78 AUDIO
    TITLE "12:cjc026_08255"
    INDEX 01 01:07:48
  TRACK 79 AUDIO
    TITLE "0:"
    INDEX 01 01:08:59
